<?xml version="1.0" encoding="iso-8859-1"?>
<!-- Generator: Adobe Illustrator 19.0.0, SVG Export Plug-In . SVG Version: 6.00 Build 0)  -->
<svg version="1.1" id="Capa_1" xmlns="http://www.w3.org/2000/svg" xmlns:xlink="http://www.w3.org/1999/xlink" x="0px" y="0px"
	 viewBox="0 0 512 512" style="enable-background:new 0 0 512 512;" xml:space="preserve">
<path style="fill:#AAC1CE;" d="M512,86.352h-16v-16h16V86.352z M480,86.352h-16v-16h16V86.352z M448,86.352h-16v-16h16V86.352z
	 M416,86.352h-16v-16h16V86.352z M384,86.352h-16v-16h16V86.352z M352,86.352h-16v-16h16V86.352z M320,86.352h-16v-16h16V86.352z
	 M288,86.352h-16v-16h16V86.352z M256,86.352h-16v-16h16V86.352z M224,86.352h-16v-16h16V86.352z M192,86.352h-16v-16h16V86.352z
	 M160,86.352h-16v-16h16V86.352z"/>
<g>
	<path style="fill:#25B6D2;" d="M40,54.352c13.232,0,24,10.768,24,24s-10.768,24-24,24s-24-10.768-24-24S26.768,54.352,40,54.352
		 M40,38.352c-22.088,0-40,17.912-40,40s17.912,40,40,40s40-17.912,40-40S62.088,38.352,40,38.352L40,38.352z"/>
	<path style="fill:#25B6D2;" d="M40,172.784c13.232,0,24,10.768,24,24s-10.768,24-24,24s-24-10.768-24-24S26.768,172.784,40,172.784
		 M40,156.784c-22.088,0-40,17.912-40,40s17.912,40,40,40s40-17.912,40-40S62.088,156.784,40,156.784L40,156.784z"/>
	<path style="fill:#25B6D2;" d="M40,291.216c13.232,0,24,10.768,24,24s-10.768,24-24,24s-24-10.768-24-24S26.768,291.216,40,291.216
		 M40,275.216c-22.088,0-40,17.912-40,40s17.912,40,40,40s40-17.912,40-40S62.088,275.216,40,275.216L40,275.216z"/>
	<path style="fill:#25B6D2;" d="M40,409.648c13.232,0,24,10.768,24,24s-10.768,24-24,24s-24-10.768-24-24S26.768,409.648,40,409.648
		 M40,393.648c-22.088,0-40,17.912-40,40s17.912,40,40,40s40-17.912,40-40S62.088,393.648,40,393.648L40,393.648z"/>
</g>
<g>
	<path style="fill:#AAC1CE;" d="M512,204.784h-16v-16h16V204.784z M480,204.784h-16v-16h16V204.784z M448,204.784h-16v-16h16
		V204.784z M416,204.784h-16v-16h16V204.784z M384,204.784h-16v-16h16V204.784z M352,204.784h-16v-16h16V204.784z M320,204.784h-16
		v-16h16V204.784z M288,204.784h-16v-16h16V204.784z M256,204.784h-16v-16h16V204.784z M224,204.784h-16v-16h16V204.784z
		 M192,204.784h-16v-16h16V204.784z M160,204.784h-16v-16h16V204.784z"/>
	<path style="fill:#AAC1CE;" d="M512,323.216h-16v-16h16V323.216z M480,323.216h-16v-16h16V323.216z M448,323.216h-16v-16h16
		V323.216z M416,323.216h-16v-16h16V323.216z M384,323.216h-16v-16h16V323.216z M352,323.216h-16v-16h16V323.216z M320,323.216h-16
		v-16h16V323.216z M288,323.216h-16v-16h16V323.216z M256,323.216h-16v-16h16V323.216z M224,323.216h-16v-16h16V323.216z
		 M192,323.216h-16v-16h16V323.216z M160,323.216h-16v-16h16V323.216z"/>
	<path style="fill:#AAC1CE;" d="M512,441.648h-16v-16h16V441.648z M480,441.648h-16v-16h16V441.648z M448,441.648h-16v-16h16
		V441.648z M416,441.648h-16v-16h16V441.648z M384,441.648h-16v-16h16V441.648z M352,441.648h-16v-16h16V441.648z M320,441.648h-16
		v-16h16V441.648z M288,441.648h-16v-16h16V441.648z M256,441.648h-16v-16h16V441.648z M224,441.648h-16v-16h16V441.648z
		 M192,441.648h-16v-16h16V441.648z M160,441.648h-16v-16h16V441.648z"/>
</g>
<g>
</g>
<g>
</g>
<g>
</g>
<g>
</g>
<g>
</g>
<g>
</g>
<g>
</g>
<g>
</g>
<g>
</g>
<g>
</g>
<g>
</g>
<g>
</g>
<g>
</g>
<g>
</g>
<g>
</g>
</svg>
