<?xml version="1.0"?>
<svg xmlns="http://www.w3.org/2000/svg" xmlns:xlink="http://www.w3.org/1999/xlink" version="1.1" id="Layer_1" x="0px" y="0px" viewBox="0 0 512 512" style="enable-background:new 0 0 512 512;" xml:space="preserve" class=""><g><polygon style="fill:#080588" points="215.311,157.072 0,292.653 296.689,479.477 512,343.897 " data-original="#7A7674" class="" data-old_color="#7A7674"/><polygon style="fill:#373EBB" points="215.311,94.798 0,230.378 296.689,417.202 512,281.622 " data-original="#CCC4C1" class="active-path" data-old_color="#000BCD"/><polygon style="fill:#EBEDEC" points="215.311,32.523 0,168.103 296.689,354.928 512,219.347 " data-original="#EBEDEC" class=""/><g>
	<path style="fill:#080588" d="M343.797,225.296c-2.209,0-4.447-0.603-6.453-1.868l-42.261-26.612   c-5.67-3.571-7.372-11.061-3.801-16.732c3.571-5.671,11.064-7.372,16.732-3.801l42.261,26.612   c5.67,3.571,7.372,11.061,3.801,16.732C351.77,223.289,347.826,225.296,343.797,225.296z" data-original="#7A7674" class="" data-old_color="#7A7674"/>
	<path style="fill:#080588" d="M267.383,177.179c-2.209,0-4.445-0.603-6.453-1.868L218.67,148.7   c-5.67-3.571-7.372-11.061-3.801-16.732c3.569-5.671,11.061-7.374,16.732-3.801l42.259,26.611   c5.67,3.571,7.372,11.061,3.801,16.732C275.355,175.171,271.413,177.179,267.383,177.179z" data-original="#7A7674" class="" data-old_color="#7A7674"/>
	<path style="fill:#080588" d="M286.853,261.152c-2.209,0-4.445-0.603-6.453-1.868l-118.672-74.728   c-5.67-3.571-7.372-11.061-3.801-16.732c3.569-5.67,11.061-7.373,16.732-3.801l118.672,74.728   c5.67,3.571,7.372,11.061,3.801,16.732C294.826,259.145,290.883,261.152,286.853,261.152z" data-original="#7A7674" class="" data-old_color="#7A7674"/>
</g></g> </svg>
