<?xml version="1.0" encoding="iso-8859-1"?>
<!-- Generator: Adobe Illustrator 19.0.0, SVG Export Plug-In . SVG Version: 6.00 Build 0)  -->
<svg xmlns="http://www.w3.org/2000/svg" xmlns:xlink="http://www.w3.org/1999/xlink" version="1.1" id="Capa_1" x="0px" y="0px" viewBox="0 0 512 512" style="enable-background:new 0 0 512 512;" xml:space="preserve">
<g>
	<g>
		<path d="M256,0c-33.091,0-60,27.909-60,61s26.909,60,60,60s60-26.909,60-60S289.091,0,256,0z" fill="#FFFFFF"/>
	</g>
</g>
<g>
	<g>
		<path d="M15,331c-8.291,0-15,6.709-15,15v151c0,8.291,6.709,15,15,15h106V331H15z" fill="#FFFFFF"/>
	</g>
</g>
<g>
	<g>
		<path d="M497,391H391v121h106c8.291,0,15-6.709,15-15v-91C512,397.709,505.291,391,497,391z" fill="#FFFFFF"/>
	</g>
</g>
<g>
	<g>
		<path d="M346,271H166c-8.291,0-15,6.709-15,15c0,100.12,0,125.92,0,226c42.589,0,160.259,0,210,0c0-124.27,0-98.341,0-226    C361,277.709,354.291,271,346,271z M286,421c8.291,0,15,6.709,15,15c0,8.291-6.709,15-15,15h-60c-8.291,0-15-6.709-15-15    c0-8.291,6.709-15,15-15h15v-60h-15c-8.291,0-15-6.709-15-15c0-8.291,6.709-15,15-15h60c8.291,0,15,6.709,15,15    c0,8.291-6.709,15-15,15h-15v60H286z" fill="#FFFFFF"/>
	</g>
</g>
<g>
	<g>
		<path d="M325.291,117.732C308.773,137.866,284.017,151,256,151c-28.017,0-52.773-13.134-69.291-33.268    C164.987,136.983,151,164.766,151,196v30c0,8.291,6.709,15,15,15h180c8.291,0,15-6.709,15-15v-30    C361,164.766,347.013,136.983,325.291,117.732z" fill="#FFFFFF"/>
	</g>
</g>
<g>
</g>
<g>
</g>
<g>
</g>
<g>
</g>
<g>
</g>
<g>
</g>
<g>
</g>
<g>
</g>
<g>
</g>
<g>
</g>
<g>
</g>
<g>
</g>
<g>
</g>
<g>
</g>
<g>
</g>
</svg>
