<?xml version="1.0" encoding="iso-8859-1"?>
<!-- Generator: Adobe Illustrator 19.0.0, SVG Export Plug-In . SVG Version: 6.00 Build 0)  -->
<svg version="1.1" id="Capa_1" xmlns="http://www.w3.org/2000/svg" xmlns:xlink="http://www.w3.org/1999/xlink" x="0px" y="0px"
	 viewBox="0 0 512 512" style="enable-background:new 0 0 512 512;" xml:space="preserve">
<polygon style="fill:#C6C5CB;" points="109.832,0 43.334,38.645 43.325,38.639 43.325,304.811 402.168,511.99 402.168,512 
	468.675,473.35 468.675,207.178 "/>
<polygon style="fill:#D8D8DA;" points="402.168,245.817 402.168,511.99 43.325,304.811 402.168,511.99 43.325,304.811 
	43.325,38.639 "/>
<polygon style="fill:#E0E0E2;" points="43.325,38.65 109.832,0 468.675,207.178 402.168,245.827 "/>
<polygon style="fill:#C6C5CB;" points="402.168,245.827 468.675,207.178 468.675,473.35 402.168,512 "/>
<path style="fill:#ACDD58;" d="M197.776,295.882c0.082-29.164-16.914-63.596-40.174-84.58l10.831-6.294
	c6.532-3.796,10.583-11.868,10.615-23.341c0.066-23.095-16.174-51.222-36.272-62.826c-10.114-5.84-19.279-6.382-25.897-2.536
	L76.71,139.649c0.021-0.012,0.044-0.024,0.064-0.035c-6.57,3.78-10.648,11.866-10.68,23.376
	c-0.043,14.867,6.677,31.816,16.829,45.103l-19.98,11.61c0.088-0.051,0.178-0.099,0.266-0.149
	c-10.101,5.715-16.378,18.064-16.428,35.686l-0.108,38.139l110.826,63.985l0,0l0,0l0,0l0,0l40.169-23.343L197.776,295.882z"/>
<g>
	<path style="fill:#8DC43D;" d="M62.944,219.702l40.169-23.343c8.012-4.656,18.474-5.088,30.168-0.6l-40.169,23.343
		C81.419,214.615,70.955,215.047,62.944,219.702z"/>
	<path style="fill:#8DC43D;" d="M151.802,206.452l-40.169,23.343c26.181,20.189,46.064,57.892,45.975,89.43l-0.108,38.139
		l40.169-23.343l0.108-38.138C197.866,264.344,177.982,226.641,151.802,206.452z"/>
</g>
<path style="fill:#CCFF69;" d="M142.776,118.841c-10.114-5.84-19.279-6.382-25.897-2.536L76.71,139.649
	c6.618-3.846,15.782-3.303,25.897,2.536c20.098,11.604,36.338,39.731,36.272,62.826c-0.032,11.473-4.083,19.545-10.615,23.341
	l40.169-23.343c6.532-3.796,10.583-11.868,10.615-23.341C179.114,158.572,162.874,130.445,142.776,118.841z"/>
<path style="fill:#ACDD58;" d="M102.607,142.184c20.098,11.604,36.338,39.731,36.272,62.826
	c-0.055,19.417-11.62,29.094-27.245,24.785c26.181,20.189,46.064,57.892,45.975,89.43l-0.108,38.139L46.673,293.379l0.108-38.139
	c0.089-31.538,20.121-46.196,46.33-36.137c-15.6-13.72-27.072-36.696-27.017-56.114C66.161,139.894,82.509,130.581,102.607,142.184z
	"/>
<g>
	<polygon style="fill:#808080;" points="367.499,412.439 367.461,426.028 223.044,342.648 223.083,329.06 	"/>
	<polygon style="fill:#808080;" points="367.598,377.492 367.559,391.081 223.143,307.702 223.181,294.113 	"/>
	<polygon style="fill:#808080;" points="367.698,342.545 367.659,356.133 223.242,272.754 223.28,259.165 	"/>
	<polygon style="fill:#808080;" points="367.797,307.598 367.758,321.187 223.341,237.807 223.38,224.219 	"/>
</g>
<g>
</g>
<g>
</g>
<g>
</g>
<g>
</g>
<g>
</g>
<g>
</g>
<g>
</g>
<g>
</g>
<g>
</g>
<g>
</g>
<g>
</g>
<g>
</g>
<g>
</g>
<g>
</g>
<g>
</g>
</svg>
