<?xml version="1.0" encoding="iso-8859-1"?>
<!-- Generator: Adobe Illustrator 19.0.0, SVG Export Plug-In . SVG Version: 6.00 Build 0)  -->
<svg xmlns="http://www.w3.org/2000/svg" xmlns:xlink="http://www.w3.org/1999/xlink" version="1.1" id="Capa_1" x="0px" y="0px" viewBox="0 0 511.999 511.999" style="enable-background:new 0 0 511.999 511.999;" xml:space="preserve">
<g>
	<g>
		<path d="M421.789,183.966c-7.766-7.766-20.36-7.767-28.127,0L270.063,307.567c-18.096,18.094-47.539,18.094-65.632,0.001    c-18.094-18.094-18.094-47.536-0.001-65.632l123.601-123.598c7.767-7.767,7.767-20.36,0.001-28.127    c-7.767-7.767-20.36-7.766-28.127-0.001L176.304,213.809c-28.761,28.762-32.881,72.955-12.407,106.166L5.826,478.047    c-7.767,7.767-7.767,20.36,0,28.127c3.884,3.884,8.974,5.825,14.064,5.825c5.09,0,10.181-1.941,14.063-5.825l158.07-158.071    c13.81,8.514,29.51,12.794,45.221,12.794c22.07,0,44.142-8.4,60.945-25.201l123.6-123.602    C429.555,204.326,429.555,191.733,421.789,183.966z" fill="#10c9ff"/>
	</g>
</g>
<g>
	<g>
		<path d="M271.775,33.955c-7.767-7.767-20.36-7.766-28.127,0L129.993,147.607c-7.767,7.766-7.767,20.359,0,28.126    c3.885,3.884,8.974,5.826,14.064,5.826c5.089,0,10.181-1.943,14.063-5.825L271.775,62.082    C279.542,54.315,279.542,41.721,271.775,33.955z" fill="#10c9ff"/>
	</g>
</g>
<g>
	<g>
		<path d="M478.043,240.222c-7.766-7.767-20.36-7.767-28.127,0L336.262,353.877c-7.767,7.767-7.767,20.36,0,28.127    c3.884,3.884,8.974,5.826,14.063,5.826c5.09,0,10.181-1.941,14.064-5.826l113.654-113.655    C485.811,260.582,485.811,247.988,478.043,240.222z" fill="#10c9ff"/>
	</g>
</g>
<g>
	<g>
		<path d="M506.174,324.607c-7.766-7.767-20.36-7.766-28.127,0l-57.399,57.396c-7.767,7.767-7.767,20.36-0.001,28.127    c3.884,3.884,8.974,5.826,14.064,5.826c5.089,0,10.181-1.943,14.063-5.825l57.399-57.396    C513.94,344.967,513.94,332.374,506.174,324.607z" fill="#10c9ff"/>
	</g>
</g>
<g>
	<g>
		<path d="M187.393,5.825c-7.766-7.766-20.36-7.767-28.127,0l-57.398,57.399c-7.766,7.767-7.766,20.36,0,28.127    c3.884,3.884,8.974,5.825,14.064,5.825c5.09,0,10.181-1.941,14.064-5.826l57.396-57.398    C195.159,26.185,195.159,13.591,187.393,5.825z" fill="#10c9ff"/>
	</g>
</g>
<g>
</g>
<g>
</g>
<g>
</g>
<g>
</g>
<g>
</g>
<g>
</g>
<g>
</g>
<g>
</g>
<g>
</g>
<g>
</g>
<g>
</g>
<g>
</g>
<g>
</g>
<g>
</g>
<g>
</g>
</svg>
