<?xml version="1.0" encoding="iso-8859-1"?>
<!-- Generator: Adobe Illustrator 16.0.0, SVG Export Plug-In . SVG Version: 6.00 Build 0)  -->
<!DOCTYPE svg PUBLIC "-//W3C//DTD SVG 1.1//EN" "http://www.w3.org/Graphics/SVG/1.1/DTD/svg11.dtd">
<svg xmlns="http://www.w3.org/2000/svg" xmlns:xlink="http://www.w3.org/1999/xlink" version="1.1" id="Capa_1" x="0px" y="0px" viewBox="0 0 78.319 78.319" style="enable-background:new 0 0 78.319 78.319;" xml:space="preserve">
<g>
	<g>
		<polygon points="18.369,31.75 29.121,21.223 32.257,24.582 34.945,13.159 23.522,15.623 26.881,18.983 16.354,29.51   " fill="#006DF0"/>
		<polygon points="64.736,45.415 54.209,55.943 50.85,52.583 48.386,64.007 59.811,61.318 56.449,58.182 66.979,47.655   " fill="#006DF0"/>
		<path d="M38.753,71.175c-0.447-0.896-0.896-0.896-1.567-1.121c-3.36-1.345-6.272-1.791-9.408-2.912    c-0.224-0.224-1.12-0.672-1.12-2.239c0-0.672-0.224-1.119-0.896-1.119c-0.226,0-0.226,0-0.226-0.445    c-0.224-1.568-0.224-2.24-0.224-2.467c0-0.225,0.224-0.445,0.224-0.445c1.12-1.568,1.345-3.361,1.568-4.48    c0,0,0.224,0.226,0.448-0.447c0.224-0.674,0.224-0.896,0.447-1.793c0.225-0.672,0.225-1.791-0.447-1.791    c-0.448,0.224-0.448,0-0.448-0.448v-4.257c-0.225-1.567-1.12-2.463-1.792-2.911c-1.12-0.673-1.344-0.896-1.792-1.345    c-0.448-0.446-0.448-0.896,0-1.344c0.224-0.225,0.448-0.447,0.672-0.447l0,0l0,0h-0.224l0,0c-0.226,0-2.688,0.447-3.584,0.672    c-1.792,0.447-3.584,1.119-5.152,2.238c-1.12,0.896-2.017,1.793-2.017,3.137c0,0.673,0,3.138,0,4.257c0,0.226,0,0.672-0.447,0.448    c-0.896,0-0.448,1.566-0.448,1.791c0.225,0.896,0.448,1.119,0.672,1.793c0.226,0.447,0.448,0.447,0.448,0.447    c0.225,1.119,0.672,3.137,1.568,4.48c0.224,0.223,0.224,0.445,0.224,0.672c-0.224,0.895-0.224,1.791-0.224,2.463    c0,0.225-0.226,0.449-0.448,0.449c-0.672,0-0.896,0.445-0.896,1.119c0,1.119-0.673,2.016-1.12,2.238    c-1.567,0.672-7.393,2.467-9.185,2.912c-1.344,0.446-1.567,0.896-1.792,1.344L0,75.434c7.168,0,34.943,0,40.319,0L38.753,71.175z" fill="#006DF0"/>
		<path d="M78.319,37.152H37.943l1.699-4.373c0.244-0.489,0.508-1.013,1.945-1.491c1.843-0.46,7.394-2.24,8.941-2.904    c0.318-0.158,0.968-0.943,0.968-2.01c0-1.131,0.623-1.369,1.146-1.369c0.084,0,0.195-0.112,0.195-0.197c0-0.675,0-1.6,0.234-2.526    c-0.008-0.145-0.008-0.282-0.16-0.433c-0.875-1.092-1.334-2.912-1.607-4.244c-0.131-0.069-0.299-0.216-0.454-0.524    c-0.1-0.292-0.187-0.481-0.272-0.671c-0.137-0.301-0.277-0.613-0.418-1.174c-0.009-0.093-0.021-0.155-0.034-0.236    c-0.099-0.582-0.177-1.234,0.143-1.612c0.098-0.115,0.277-0.253,0.581-0.253l0.111,0.026c0.068,0.034,0.098,0.035,0.099,0.035    c-0.013-0.023-0.013-0.202-0.013-0.26V8.679c0-1.516,1.043-2.477,2.111-3.331c1.416-1.013,3.129-1.759,5.246-2.288    c0.517-0.129,1.366-0.175,1.937-0.175c1.164,0,1.227,0.149,1.28,0.281l0.064,0.155L61.554,3.48c-0.352,0.352-0.352,0.639,0,0.99    c0.432,0.432,0.647,0.649,1.743,1.307c0.612,0.408,1.661,1.343,1.911,3.091l0.003,4.292c0,0.329-0.051,0.522-0.082,0.637    c-0.002,0.009-0.004,0.017-0.007,0.025c0.179,0.037,0.33,0.137,0.443,0.295c0.344,0.478,0.236,1.344,0.08,1.81    c-0.108,0.327-0.163,0.546-0.219,0.765c-0.057,0.229-0.114,0.458-0.229,0.802c-0.046,0.138-0.172,0.519-0.44,0.626    c-0.033,0.786-0.245,2.547-1.387,4.145c-0.09,0.095-0.178,0.226-0.178,0.302c0,0.218,0,0.879,0.222,2.429    c0.002,0.094,0.002,0.174,0.004,0.233c0.518,0.008,1.121,0.255,1.121,1.369c0,1.219,0.579,1.681,0.89,1.929    c0.042,0.034,0.079,0.063,0.11,0.091c1.337,0.443,2.581,0.785,3.784,1.114c1.84,0.504,3.578,0.981,5.587,1.786    c0.083,0.027,0.176,0.054,0.264,0.081c0.539,0.161,1.005,0.299,1.435,1.159L78.319,37.152z M38.673,36.652h38.916l-1.437-3.692    c-0.323-0.645-0.623-0.734-1.12-0.882c-0.093-0.028-0.19-0.057-0.293-0.091c-1.997-0.799-3.722-1.272-5.547-1.772    c-1.226-0.336-2.492-0.683-3.861-1.139l-0.098-0.061c-0.027-0.028-0.068-0.059-0.115-0.097c-0.351-0.28-1.078-0.861-1.078-2.32    c0-0.764-0.311-0.869-0.646-0.869c-0.477,0-0.477-0.263-0.477-0.698c-0.225-1.549-0.225-2.238-0.225-2.464    c0-0.319,0.268-0.595,0.299-0.625c1.178-1.654,1.271-3.541,1.271-4.079v-0.603l0.347,0.346c0.022-0.044,0.065-0.126,0.113-0.271    c0.108-0.328,0.163-0.547,0.219-0.766c0.057-0.229,0.114-0.458,0.229-0.802c0.148-0.443,0.18-1.094-0.012-1.36    c-0.052-0.072-0.11-0.103-0.198-0.103h-0.104l-0.073-0.073c-0.21-0.211-0.188-0.373-0.139-0.563    c0.028-0.104,0.065-0.246,0.065-0.509V8.903c-0.221-1.52-1.148-2.349-1.682-2.704C61.892,5.516,61.66,5.285,61.2,4.824    c-0.454-0.455-0.531-0.947-0.23-1.415c-0.143-0.013-0.348-0.023-0.629-0.023c-0.702,0-1.432,0.064-1.815,0.161    c-2.056,0.513-3.712,1.233-5.065,2.201c-1.177,0.941-1.913,1.764-1.913,2.932v4.256c0,0.188,0,0.76-0.487,0.76    c-0.081,0-0.166-0.02-0.259-0.059c-0.086,0.009-0.125,0.043-0.15,0.073c-0.196,0.232-0.081,0.915-0.032,1.206    c0.021,0.122,0.034,0.214,0.034,0.259c0.122,0.456,0.248,0.734,0.382,1.028c0.092,0.204,0.185,0.408,0.277,0.686    c0.125,0.243,0.239,0.278,0.24,0.278h0.205l0.01,0.198c0.259,1.291,0.697,3.125,1.517,4.149c0.281,0.277,0.281,0.583,0.281,0.828    c-0.227,0.927-0.227,1.816-0.227,2.465c0,0.358-0.338,0.697-0.695,0.697c-0.336,0-0.646,0.105-0.646,0.869    c0,1.255-0.751,2.212-1.258,2.464c-1.576,0.676-7.174,2.472-9.012,2.93c-1.223,0.408-1.418,0.797-1.625,1.209L38.673,36.652z" fill="#006DF0"/>
	</g>
</g>
<g>
</g>
<g>
</g>
<g>
</g>
<g>
</g>
<g>
</g>
<g>
</g>
<g>
</g>
<g>
</g>
<g>
</g>
<g>
</g>
<g>
</g>
<g>
</g>
<g>
</g>
<g>
</g>
<g>
</g>
</svg>
