<?xml version="1.0" encoding="iso-8859-1"?>
<!-- Generator: Adobe Illustrator 19.1.0, SVG Export Plug-In . SVG Version: 6.00 Build 0)  -->
<svg xmlns="http://www.w3.org/2000/svg" xmlns:xlink="http://www.w3.org/1999/xlink" version="1.1" id="Capa_1" x="0px" y="0px" viewBox="0 0 487.194 487.194" style="enable-background:new 0 0 487.194 487.194;" xml:space="preserve">
<g>
	<g>
		<path d="M264.911,0c-28.5,0-55.4,6.4-79.5,17.8c-63.6,29.5-107.6,93.8-107.6,168.5l0,0v24.9v6l-37.9,72.4    c-9.6,18.3-0.5,33.2,20.1,33.2h17.8v0.4v31.5v36.9c0,21.5,17.6,39.1,39.1,39.1l53.7-8l0.1,53.7v0.4l0,0    c0.3,6.9,6.1,11.4,13.3,10.2l193.5-34.2c7.3-1.3,13.3-8.4,13.3-15.8v-8.5v-6.9v-98.4c37.1-34,60.3-82.9,60.3-137.1    C451.011,83.3,367.711,0,264.911,0z M359.911,282.6c-44.7,44.7-112.9,51.8-165,21.1l-0.3-0.2c-20.5,15.5-42.5,18.2-57.8,15.8    c-5.1-0.8-6.2-7.7-1.5-10c14-6.9,22.9-20.6,28-31.7l-1.4-1.1c-47.3-53.4-45.4-135.1,5.7-186.2c53.1-53.1,139.2-53.1,192.3,0    S413.011,229.5,359.911,282.6z" fill="#3d87c4"/>
		<path d="M269.311,147.1c12,0.1,21.9-9.9,22-22.2c0.1-12.4-9.7-22.4-21.9-22.5c-12.3-0.1-22.2,9.8-22.3,22.1    C247.011,136.9,257.011,147,269.311,147.1z" fill="#3d87c4"/>
		<path d="M295.911,247.6c-2.2,0.8-4.1,2.3-6.2,3.2c-2.7,1-5.4,2-8.3,2.3c-3.4,0.4-5.8-1.4-6.7-4.8c-0.6-2.5-1-5.1-0.7-7.6    c0.6-5.3,1.7-10.5,2.6-15.7c2.9-15.8,5.8-31.6,8.6-47.4c0.8-4.3,1.5-8.6,1.4-12.9c-0.1-5.2-3.2-7.6-8.4-7.6c-7.2,0-14.4,0-21.6,0    c-6.8,0-13.6,0-20.4,0c-1.7,0-3.4,0.1-5.1,0.4c-3.1,0.6-4.7,2.1-4.9,4.6c-0.3,2.3,1,4.5,3.9,5.5c2.3,0.8,4.8,1,7.3,1.4    c5.7,0.8,7.5,2.8,7.5,8.6c0,0.9-0.1,1.8-0.2,2.7c-2.4,13.8-4.9,27.7-7.2,41.5c-1.3,8-2.6,15.9-3.7,23.9    c-1.6,11.7,9.7,22.7,18.5,23.9c5.3,0.8,10.8,0.9,16.2,0.9c11.6-0.1,21.2-5,29.3-13.2c1.4-1.4,2.6-3.4,3.1-5.3    C301.811,248.5,299.111,246.3,295.911,247.6z" fill="#3d87c4"/>
	</g>
</g>
<g>
</g>
<g>
</g>
<g>
</g>
<g>
</g>
<g>
</g>
<g>
</g>
<g>
</g>
<g>
</g>
<g>
</g>
<g>
</g>
<g>
</g>
<g>
</g>
<g>
</g>
<g>
</g>
<g>
</g>
</svg>
