<?xml version="1.0" encoding="iso-8859-1"?>
<!-- Generator: Adobe Illustrator 16.0.0, SVG Export Plug-In . SVG Version: 6.00 Build 0)  -->
<!DOCTYPE svg PUBLIC "-//W3C//DTD SVG 1.1//EN" "http://www.w3.org/Graphics/SVG/1.1/DTD/svg11.dtd">
<svg xmlns="http://www.w3.org/2000/svg" xmlns:xlink="http://www.w3.org/1999/xlink" version="1.1" id="Capa_1" x="0px" y="0px" viewBox="0 0 398.473 398.473" style="enable-background:new 0 0 398.473 398.473;" xml:space="preserve">
<g>
	<path d="M390.637,331.949L283.461,224.773c-2.357-2.357-5.498-3.656-8.838-3.656s-6.479,1.299-8.84,3.658l-4.988,4.992   c0,0-1.551,1.686-3.082,0.153c-4.799-4.798-17.344-17.345-17.344-17.345c-1.563-1.562-0.58-3.506,0.039-4.344   c16.463-22.315,25.359-49.191,25.359-77.438c0-34.936-13.605-67.781-38.309-92.485C202.756,13.605,169.91,0,134.975,0   c-34.938,0-67.782,13.605-92.486,38.309C17.786,63.013,4.18,95.858,4.18,130.794c0,34.937,13.605,67.782,38.309,92.485   c24.705,24.703,57.55,38.309,92.486,38.309c25.225,0,46.598-5.385,67.364-18.626c0,0,2.683-1.788,4.31-0.161   c4.002,4.003,14.661,14.663,18.746,18.746c1.533,1.533,0.149,3.469,0.149,3.469l-4.948,4.948c-2.359,2.358-3.658,5.498-3.658,8.84   c0,3.343,1.299,6.481,3.656,8.839L327.77,394.816c2.357,2.357,5.496,3.656,8.838,3.656s6.479-1.299,8.838-3.656l45.189-45.189   c2.359-2.357,3.658-5.498,3.658-8.84S392.994,334.307,390.637,331.949z M56.632,209.139c-20.926-20.927-32.451-48.75-32.451-78.344   s11.525-57.417,32.451-78.343c20.926-20.926,48.749-32.451,78.344-32.451c29.594,0,57.416,11.524,78.342,32.451   c20.926,20.926,32.451,48.749,32.451,78.343s-11.525,57.417-32.451,78.344c-20.926,20.926-48.749,32.45-78.342,32.45   C105.381,241.588,77.557,230.064,56.632,209.139z M339.264,374.131c-2.084,2.084-3.977,1.336-6.318-1.01   c-15.006-15.008-71.992-71.999-92.871-92.871c-1.606-1.605-0.084-2.811-0.084-2.811l5.244-5.246c4.875-4.873,4.875-12.803,0-17.676   l-22.029-22.029c0,0-1.54-1.416-0.562-2.396c1.047-1.047,2.406-2.407,3.209-3.209c1.166-1.167,2.456,0.502,2.456,0.502   l22.028,22.028c2.359,2.359,5.498,3.658,8.84,3.658s6.479-1.299,8.838-3.658l4.902-4.902c0,0,1.758-1.656,3.811,0.396   c21.184,21.184,79.812,79.812,93.152,93.152c1.756,1.754,1.633,3.818-0.283,5.734C362.014,351.381,346.846,366.545,339.264,374.131   z" fill="#006DF0"/>
</g>
<g>
</g>
<g>
</g>
<g>
</g>
<g>
</g>
<g>
</g>
<g>
</g>
<g>
</g>
<g>
</g>
<g>
</g>
<g>
</g>
<g>
</g>
<g>
</g>
<g>
</g>
<g>
</g>
<g>
</g>
</svg>
