<?xml version="1.0" encoding="iso-8859-1"?>
<!-- Generator: Adobe Illustrator 19.0.0, SVG Export Plug-In . SVG Version: 6.00 Build 0)  -->
<svg xmlns="http://www.w3.org/2000/svg" xmlns:xlink="http://www.w3.org/1999/xlink" version="1.1" id="Capa_1" x="0px" y="0px" viewBox="0 0 496 496" style="enable-background:new 0 0 496 496;" xml:space="preserve" >
<g>
	<g>
		<g>
			<path d="M224,0H48v192h176V0z M208,176H64V16h16v16h16V16h16v16h16V16h16v16h16V16h16v16h16V16h16V176z" fill="#198eee"/>
			<path d="M240,208H32v64h208V208z M224,256H48v-32h176V256z" fill="#198eee"/>
			<path d="M56,288c-13.232,0-24,10.768-24,24s10.768,24,24,24s24-10.768,24-24S69.232,288,56,288z M56,320c-4.416,0-8-3.584-8-8     c0-4.416,3.584-8,8-8s8,3.584,8,8C64,316.416,60.416,320,56,320z" fill="#198eee"/>
			<path d="M136,288c-13.232,0-24,10.768-24,24s10.768,24,24,24s24-10.768,24-24S149.232,288,136,288z M136,320     c-4.416,0-8-3.584-8-8c0-4.416,3.584-8,8-8s8,3.584,8,8C144,316.416,140.416,320,136,320z" fill="#198eee"/>
			<path d="M216,288c-13.232,0-24,10.768-24,24s10.768,24,24,24s24-10.768,24-24S229.232,288,216,288z M216,320     c-4.416,0-8-3.584-8-8c0-4.416,3.584-8,8-8s8,3.584,8,8C224,316.416,220.416,320,216,320z" fill="#198eee"/>
			<path d="M56,352c-13.232,0-24,10.768-24,24s10.768,24,24,24s24-10.768,24-24S69.232,352,56,352z M56,384c-4.416,0-8-3.584-8-8     c0-4.416,3.584-8,8-8s8,3.584,8,8C64,380.416,60.416,384,56,384z" fill="#198eee"/>
			<path d="M136,352c-13.232,0-24,10.768-24,24s10.768,24,24,24s24-10.768,24-24S149.232,352,136,352z M136,384     c-4.416,0-8-3.584-8-8c0-4.416,3.584-8,8-8s8,3.584,8,8C144,380.416,140.416,384,136,384z" fill="#198eee"/>
			<path d="M216,352c-13.232,0-24,10.768-24,24s10.768,24,24,24s24-10.768,24-24S229.232,352,216,352z M216,384     c-4.416,0-8-3.584-8-8c0-4.416,3.584-8,8-8s8,3.584,8,8C224,380.416,220.416,384,216,384z" fill="#198eee"/>
			<path d="M56,416c-13.232,0-24,10.768-24,24s10.768,24,24,24s24-10.768,24-24S69.232,416,56,416z M56,448c-4.416,0-8-3.584-8-8     c0-4.416,3.584-8,8-8s8,3.584,8,8C64,444.416,60.416,448,56,448z" fill="#198eee"/>
			<path d="M136,416c-13.232,0-24,10.768-24,24s10.768,24,24,24s24-10.768,24-24S149.232,416,136,416z M136,448     c-4.416,0-8-3.584-8-8c0-4.416,3.584-8,8-8s8,3.584,8,8C144,444.416,140.416,448,136,448z" fill="#198eee"/>
			<path d="M216,416c-13.232,0-24,10.768-24,24s10.768,24,24,24s24-10.768,24-24S229.232,416,216,416z M216,448     c-4.416,0-8-3.584-8-8c0-4.416,3.584-8,8-8s8,3.584,8,8C224,444.416,220.416,448,216,448z" fill="#198eee"/>
			<path d="M320,320h-16v40c0,4.416-3.584,8-8,8h-24v-48h-16v152c0,4.416-3.584,8-8,8H24c-4.416,0-8-3.584-8-8V168     c0-4.408,3.584-8,8-8h8v-16h-8c-13.232,0-24,10.768-24,24v304c0,13.232,10.768,24,24,24h224c13.232,0,24-10.768,24-24v-88h24     c13.232,0,24-10.768,24-24V320z" fill="#198eee"/>
			<path d="M472,0H280c-13.232,0-24,10.768-24,24v121.472c-2.512-0.896-5.184-1.472-8-1.472h-8v16h8c4.416,0,8,3.592,8,8v112     c0,13.232,10.768,24,24,24h192c13.232,0,24-10.768,24-24V24C496,10.768,485.232,0,472,0z M288,288h-8c-4.416,0-8-3.584-8-8V24     c0-4.408,3.584-8,8-8h8V288z M336,288h-32V16h32V288z M480,280c0,4.416-3.584,8-8,8H352V16h120c4.416,0,8,3.592,8,8V280z" fill="#198eee"/>
			<path d="M464,64c0-17.648-14.352-32-32-32s-32,14.352-32,32c0,9.6,4.336,18.128,11.056,24C404.336,93.872,400,102.4,400,112     c0,17.648,14.352,32,32,32s32-14.352,32-32c0-9.6-4.336-18.128-11.056-24C459.664,82.128,464,73.6,464,64z M432,128     c-8.824,0-16-7.176-16-16c0-8.824,7.176-16,16-16c8.824,0,16,7.176,16,16S440.824,128,432,128z M432,80c-8.824,0-16-7.176-16-16     s7.176-16,16-16c8.824,0,16,7.176,16,16S440.824,80,432,80z" fill="#198eee"/>
			<rect x="80" y="48" width="112" height="16" fill="#198eee"/>
			<rect x="80" y="80" width="112" height="16" fill="#198eee"/>
			<rect x="80" y="112" width="112" height="16" fill="#198eee"/>
			<rect x="80" y="144" width="112" height="16" fill="#198eee"/>
			<rect x="424" y="320" width="16" height="16" fill="#198eee"/>
			<polygon points="440,352 424,352 424,416 446.184,416 400,467.96 353.816,416 376,416 376,368 360,368 360,400 318.184,400      400,492.04 481.816,400 440,400    " fill="#198eee"/>
			<rect x="360" y="320" width="16" height="32" fill="#198eee"/>
		</g>
	</g>
</g>
<g>
</g>
<g>
</g>
<g>
</g>
<g>
</g>
<g>
</g>
<g>
</g>
<g>
</g>
<g>
</g>
<g>
</g>
<g>
</g>
<g>
</g>
<g>
</g>
<g>
</g>
<g>
</g>
<g>
</g>
</svg>
