<?xml version="1.0" encoding="utf-8"?>
<!-- Generator: Adobe Illustrator 21.0.0, SVG Export Plug-In . SVG Version: 6.00 Build 0)  -->
<svg version="1.1" id="Layer_1" xmlns="http://www.w3.org/2000/svg" xmlns:xlink="http://www.w3.org/1999/xlink" x="0px" y="0px"
	 viewBox="0 0 76.4 58.5" style="enable-background:new 0 0 76.4 58.5;" xml:space="preserve">
<style type="text/css">
	.st0{fill:#F3CA1A;}
	.st1{fill:#FFFFFF;}
	.st2{fill:url(#SVGID_1_);}
	.st3{fill:url(#SVGID_2_);}
</style>
<path class="st0" d="M73.8,39.8C45.5,38.7,63.1,31,63.1,31c-13.7,4.2-5.6-6.3,0.9-13.4c0,0,0,0,0,0c-18.4,17.6-13.4-0.3-13.4-0.3
	c-8,17.5-9-8-9-15.6c-0.3,37.6-9,15.6-9,15.6c4.2,17.8-14.8-0.9-15-0.9C34.9,35.7,18.8,31,18.8,31c19.4,8.8-17.8,9.6-17.8,9.6
	c38.5-0.6,17.6,9.3,17.6,9.3l7-1.2l29-0.1l8.6,1.3C49.1,41.3,64,39.9,73.8,39.8z"/>
<circle class="st1" cx="41" cy="42.7" r="12.9"/>
<g>
	<linearGradient id="SVGID_1_" gradientUnits="userSpaceOnUse" x1="41.5219" y1="44.3473" x2="41.5219" y2="34.2683">
		<stop  offset="7.541770e-04" style="stop-color:#ED2764"/>
		<stop  offset="0.1356" style="stop-color:#ED3162"/>
		<stop  offset="0.29" style="stop-color:#ED3561"/>
		<stop  offset="0.9245" style="stop-color:#F16824"/>
	</linearGradient>
	<path class="st2" d="M43,39.3c0,1.9-0.6,3.6-1.5,5c-1-1.4-1.5-3.2-1.5-5c0-1.9,0.6-3.6,1.5-5C42.5,35.7,43,37.4,43,39.3z"/>
	<g>
		<linearGradient id="SVGID_2_" gradientUnits="userSpaceOnUse" x1="41.251" y1="44.6212" x2="41.251" y2="55.7222">
			<stop  offset="7.541770e-04" style="stop-color:#0398A9"/>
			<stop  offset="5.792262e-02" style="stop-color:#1793B5"/>
			<stop  offset="0.1322" style="stop-color:#2A8EC1"/>
			<stop  offset="0.2088" style="stop-color:#358BC8"/>
			<stop  offset="0.2903" style="stop-color:#398ACA"/>
			<stop  offset="0.9245" style="stop-color:#242062"/>
		</linearGradient>
		<path class="st3" d="M41.5,44.6c-2.3,3.4-6.2,5.7-10.7,5.7h-0.1c2.3,3.3,6.1,5.4,10.5,5.4c4.3,0,8.2-2.1,10.5-5.4
			C47.5,50.2,43.7,47.9,41.5,44.6z"/>
	</g>
</g>
</svg>
